nColumns=19
nRows=64
DataType=double
version=3
OpenSimVersion=4.1
endheader
time	ground_force_calcn_r_vx	ground_force_calcn_r_vy	ground_force_calcn_r_vz	ground_force_calcn_r_px	ground_force_calcn_r_py	ground_force_calcn_r_pz	ground_force_calcn_r_mx	ground_force_calcn_r_my	ground_force_calcn_r_mz	ground_force_calcn_l_vx	ground_force_calcn_l_vy	ground_force_calcn_l_vz	ground_force_calcn_l_px	ground_force_calcn_l_py	ground_force_calcn_l_pz	ground_force_calcn_l_mx	ground_force_calcn_l_my	ground_force_calcn_l_mz
0.1	-0.809371	11.5389	-0.491139	0.705152	0	-0.148081	-0.0460668	0.656758	-0.0279541	0	0	0	0	0	0	0	0	0
0.108333	-7.18004	28.3699	-4.35267	0.86404	0	-0.274955	-0.12821	0.506586	-0.0777232	0	0	0	0	0	0	0	0	0
0.116667	-27.9909	81.3503	-9.96295	0.912996	0	-0.335411	-0.0820034	0.238328	-0.029188	0	0	0	0	0	0	0	0	0
0.125	-67.2933	219.707	-14.6076	0.922521	0	-0.355172	0.139152	-0.454319	0.0302062	0	0	0	0	0	0	0	0	0
0.133333	-115.123	492.903	-12.7817	0.924502	0	-0.35987	0.417148	-1.78603	0.0463143	0	0	0	0	0	0	0	0	0
0.141667	-150.432	866.365	-0.0349502	0.922097	0	-0.358992	0.624476	-3.59648	0.000145086	0	0	0	0	0	0	0	0	0
0.15	-166.752	1188.42	19.3328	0.913908	0	-0.356315	0.754702	-5.37864	-0.0874982	0	0	0	0	0	0	0	0	0
0.158333	-184.762	1351.28	30.5494	0.900098	0	-0.353729	0.891754	-6.52193	-0.147447	0	0	0	0	0	0	0	0	0
0.166667	-216.414	1408.8	21.6212	0.880813	0	-0.352526	1.01569	-6.61186	-0.101474	0	0	0	0	0	0	0	0	0
0.175	-237.144	1465.11	-1.61892	0.855207	0	-0.352329	0.91137	-5.6306	0.00622167	0	0	0	0	0	0	0	0	0
0.183333	-223.13	1559.12	-20.9336	0.824241	0	-0.350766	0.549754	-3.8414	0.0515768	0	0	0	0	0	0	0	0	0
0.191667	-179.888	1661.98	-26.3548	0.791954	0	-0.347261	0.170187	-1.57236	0.0249336	0	0	0	0	0	0	0	0	0
0.2	-123.359	1727.68	-24.667	0.761028	0	-0.343808	-0.0591084	0.827832	-0.0118194	0	0	0	0	0	0	0	0	0
0.208333	-61.6647	1732.86	-26.428	0.730331	0	-0.341933	-0.107692	3.02629	-0.0461543	0	0	0	0	0	0	0	0	0
0.216667	3.70031	1683.02	-31.7547	0.697857	0	-0.340936	0.0103785	4.72051	-0.0890649	0	0	0	0	0	0	0	0	0
0.225	69.3848	1594.51	-32.8643	0.663549	0	-0.339397	0.246147	5.65663	-0.116588	0	0	0	0	0	0	0	0	0
0.233333	130.521	1476.25	-25.47	0.628245	0	-0.337318	0.504096	5.70156	-0.09837	0	0	0	0	0	0	0	0	0
0.241667	182.398	1330.11	-12.3053	0.59286	0	-0.335863	0.67312	4.90863	-0.0454115	0	0	0	0	0	0	0	0	0
0.25	218.363	1157.23	2.07924	0.558529	0	-0.335623	0.663993	3.51889	0.0063225	0	0	0	0	0	0	0	0	0
0.258333	234.933	962.826	14.9584	0.525984	0	-0.335946	0.459913	1.88486	0.0292831	0	0	0	0	0	0	0	0	0
0.266667	234.128	757.782	24.6554	0.495441	0	-0.335898	0.113119	0.366124	0.0119123	0	0	0	0	0	0	0	0	0
0.275	217.741	557.227	29.759	0.466821	0	-0.33479	-0.293903	-0.752137	-0.0401682	0	0	0	0	0	0	0	0	0
0.283333	183.733	377.037	29.657	0.439908	0	-0.332021	-0.651476	-1.33689	-0.105157	0	0	0	0	0	0	0	0	0
0.291667	134.746	230.082	25.0188	0.413761	0	-0.327401	-0.851682	-1.45427	-0.158135	0	0	0	0	0	0	0	0	0
0.3	83.3294	124.171	17.8849	0.387584	0	-0.320899	-0.868759	-1.29456	-0.186461	0	0	0	0	0	0	0	0	0
0.308333	43.128	59.0471	11.0613	0.375558	0	-0.307351	-0.766048	-1.04881	-0.196474	0	0	0	0	0	0	0	0	0
0.316667	19.3555	26.1547	6.53086	0.451775	0	-0.262337	-0.630885	-0.852502	-0.212871	0	0	0	0	0	0	0	0	0
0.325	8.28618	12.64	4.32297	0.710878	0	-0.157386	-0.513029	-0.782592	-0.267652	0	0	0	0	0	0	0	0	0
0.333333	0	0	0	0	0	0	0	0	0	0	0	0	0	0	0	0	0	0
0.341667	0	0	0	0	0	0	0	0	0	0	0	0	0	0	0	0	0	0
0.35	0	0	0	0	0	0	0	0	0	0	0	0	0	0	0	0	0	0
0.358333	0	0	0	0	0	0	0	0	0	0	0	0	0	0	0	0	0	0
0.366667	0	0	0	0	0	0	0	0	0	0	0	0	0	0	0	0	0	0
0.375	0	0	0	0	0	0	0	0	0	0	0	0	0	0	0	0	0	0
0.383333	0	0	0	0	0	0	0	0	0	0	0	0	0	0	0	0	0	0
0.391667	0	0	0	0	0	0	0	0	0	0	0	0	0	0	0	0	0	0
0.4	0	0	0	0	0	0	0	0	0	-1.80786	18.1843	-1.67151	0.793493	0	-0.225753	0.0303712	-0.305489	0.0280806
0.408333	0	0	0	0	0	0	0	0	0	-15.6827	43.6777	-4.50398	0.848338	0	-0.362741	0.115062	-0.320457	0.033045
0.416667	0	0	0	0	0	0	0	0	0	-45.2492	120.194	-6.29791	0.903973	0	-0.42368	0.21554	-0.572532	0.0299994
0.425	0	0	0	0	0	0	0	0	0	-91.0082	298.552	-3.19163	0.933134	0	-0.435153	0.298172	-0.978153	0.0104568
0.433333	0	0	0	0	0	0	0	0	0	-139.335	592.296	7.29181	0.943654	0	-0.431215	0.310908	-1.32163	-0.0162707
0.441667	0	0	0	0	0	0	0	0	0	-170.16	915.976	20.3803	0.941243	0	-0.424283	0.253083	-1.36235	-0.030312
0.45	0	0	0	0	0	0	0	0	0	-184.329	1153.52	24.1977	0.927835	0	-0.420584	0.159837	-1.00025	-0.0209826
0.458333	0	0	0	0	0	0	0	0	0	-200.976	1291.36	13.2526	0.905297	0	-0.423425	0.0613291	-0.394068	-0.00404411
0.466667	0	0	0	0	0	0	0	0	0	-222.195	1391.29	0.52932	0.878756	0	-0.429948	-0.0135795	0.0850293	3.23495e-05
0.475	0	0	0	0	0	0	0	0	0	-230.671	1497.92	5.55759	0.852503	0	-0.433335	-0.0117078	0.076028	0.000282079
0.483333	0	0	0	0	0	0	0	0	0	-211.694	1605.66	29.8385	0.825206	0	-0.432333	0.0728805	-0.552785	-0.0102726
0.491667	0	0	0	0	0	0	0	0	0	-163.609	1682.39	54.058	0.794258	0	-0.431538	0.160338	-1.64875	-0.0529771
0.5	0	0	0	0	0	0	0	0	0	-96.2385	1707.62	61.5919	0.759056	0	-0.433879	0.163199	-2.89574	-0.104446
0.508333	0	0	0	0	0	0	0	0	0	-24.2383	1686.82	55.6987	0.721341	0	-0.43744	0.0573398	-3.99044	-0.131764
0.516667	0	0	0	0	0	0	0	0	0	41.424	1634.88	49.4507	0.684156	0	-0.438957	-0.119716	-4.72484	-0.142914
0.525	0	0	0	0	0	0	0	0	0	101.475	1554.51	46.8328	0.649251	0	-0.438143	-0.324283	-4.96772	-0.149663
0.533333	0	0	0	0	0	0	0	0	0	160.125	1437.72	41.1875	0.615954	0	-0.437112	-0.516882	-4.64095	-0.132953
0.541667	0	0	0	0	0	0	0	0	0	212.631	1279.76	27.9073	0.582835	0	-0.437108	-0.624839	-3.76069	-0.0820085
0.55	0	0	0	0	0	0	0	0	0	248.336	1087.26	10.5518	0.550186	0	-0.437139	-0.568149	-2.48746	-0.0241407
0.558333	0	0	0	0	0	0	0	0	0	259.38	873.879	-4.98741	0.519408	0	-0.435672	-0.327193	-1.10235	0.00629134
0.566667	0	0	0	0	0	0	0	0	0	245.96	655.566	-16.5092	0.490249	0	-0.43232	0.0310511	0.0827615	-0.0020842
0.575	0	0	0	0	0	0	0	0	0	211.734	450.778	-24.4082	0.460984	0	-0.42841	0.381482	0.812168	-0.0439763
0.583333	0	0	0	0	0	0	0	0	0	161.338	277.925	-28.0847	0.430647	0	-0.42626	0.564562	0.972527	-0.0982751
0.591667	0	0	0	0	0	0	0	0	0	104.06	150.328	-26.1274	0.403796	0	-0.42558	0.451269	0.651916	-0.113305
0.6	0	0	0	0	0	0	0	0	0	55.0626	71.4315	-19.2958	0.396529	0	-0.417054	0.048131	0.0624393	-0.0168668
0.608333	0	0	0	0	0	0	0	0	0	25.8335	33.2907	-11.0867	0.456158	0	-0.376027	-0.504798	-0.650515	0.216639
0.616667	0	0	0	0	0	0	0	0	0	12.1472	18.6694	-4.79603	0.622482	0	-0.308878	-1.04629	-1.60807	0.4131
0.625	0	0	0	0	0	0	0	0	0	3.70504	11.4504	-1.20697	0.766484	0	-0.231183	-1.00804	-3.11534	0.328383
